<svg xmlns="http://www.w3.org/2000/svg" viewBox="0 0 600 600" role="img" aria-label="Trabalho de luthieria">
  <defs>
    <linearGradient id="g3" x1="0" y1="0" x2="1" y2="1">
      <stop offset="0" stop-color="#3d3115"/>
      <stop offset="1" stop-color="#9a7327"/>
    </linearGradient>
  </defs>
  <rect width="600" height="600" fill="url(#g3)"/>
  <g stroke="#f3dcb0" stroke-opacity="0.12" fill="none" stroke-width="2">
    <path d="M0 150 C160 130 440 180 600 150"/>
    <path d="M0 230 C160 210 440 260 600 230"/>
    <path d="M0 380 C160 360 440 410 600 380"/>
    <path d="M0 460 C160 440 440 490 600 460"/>
  </g>
  <!-- corpo de violão estilizado -->
  <g transform="translate(300 300)">
    <path transform="translate(-110 -160)"
      d="M110 30c26 0 44 18 44 46 0 20-12 34-26 46 22 18 36 42 36 72 0 44-36 72-90 72s-90-28-90-72c0-30 14-54 36-72-14-12-26-26-26-46 0-28 18-46 44-46z"
      fill="#b07a3c" stroke="#f3dcb0" stroke-opacity="0.25" stroke-width="3"/>
    <circle cx="0" cy="58" r="40" fill="#241910"/>
    <circle cx="0" cy="58" r="40" fill="none" stroke="#e8b56a" stroke-opacity="0.5" stroke-width="3"/>
  </g>
</svg>
