<svg xmlns="http://www.w3.org/2000/svg" viewBox="0 0 600 600" role="img" aria-label="Trabalho de luthieria">
  <defs>
    <linearGradient id="g1" x1="0" y1="0" x2="1" y2="1">
      <stop offset="0" stop-color="#3a2817"/>
      <stop offset="1" stop-color="#7a4f28"/>
    </linearGradient>
  </defs>
  <rect width="600" height="600" fill="url(#g1)"/>
  <g stroke="#f3dcb0" stroke-opacity="0.10" fill="none" stroke-width="2">
    <path d="M0 150 C160 130 440 180 600 150"/>
    <path d="M0 230 C160 210 440 260 600 230"/>
    <path d="M0 380 C160 360 440 410 600 380"/>
    <path d="M0 460 C160 440 440 490 600 460"/>
  </g>
  <circle cx="300" cy="300" r="92" fill="#241910"/>
  <circle cx="300" cy="300" r="92" fill="none" stroke="#e8b56a" stroke-opacity="0.5" stroke-width="4"/>
  <circle cx="300" cy="300" r="66" fill="none" stroke="#e8b56a" stroke-opacity="0.25" stroke-width="2"/>
  <g stroke="#f3dcb0" stroke-opacity="0.5" stroke-width="2">
    <line x1="265" y1="70" x2="265" y2="530"/>
    <line x1="279" y1="70" x2="279" y2="530"/>
    <line x1="293" y1="70" x2="293" y2="530"/>
    <line x1="307" y1="70" x2="307" y2="530"/>
    <line x1="321" y1="70" x2="321" y2="530"/>
    <line x1="335" y1="70" x2="335" y2="530"/>
  </g>
</svg>
